<?xml version="1.0" encoding="UTF-8"?>
<svg version="1.1" xmlns="http://www.w3.org/2000/svg" width="1024" height="1024">
<path d="M0 0 C337.92 0 675.84 0 1024 0 C1024 337.92 1024 675.84 1024 1024 C686.08 1024 348.16 1024 0 1024 C0 686.08 0 348.16 0 0 Z " fill="#80B4DA" transform="translate(0,0)"/>
<path d="M0 0 C1.98152729 1.17723867 3.83850278 2.45911224 5.71044922 3.80371094 C7.20953235 4.82520413 8.71096207 5.84325959 10.21435547 6.85839844 C11.40955811 7.67195801 11.40955811 7.67195801 12.62890625 8.50195312 C17.05211988 11.44618953 21.60044074 14.18191974 26.14794922 16.92871094 C27.1142627 17.51410645 28.08057617 18.09950195 29.07617188 18.70263672 C32.09822723 20.53111134 35.12285867 22.35526296 38.14794922 24.17871094 C39.1648584 24.79294922 40.18176758 25.4071875 41.22949219 26.04003906 C73.07166988 45.26663966 105.29177216 63.73600346 138.14794922 81.17871094 C139.24365234 81.76152832 140.33935547 82.3443457 141.46826172 82.94482422 C158.43709936 91.94337498 175.65886755 100.2431591 193.14794922 108.17871094 C194.2164209 108.6642041 195.28489258 109.14969727 196.38574219 109.64990234 C202.2135722 112.29860536 202.2135722 112.29860536 208.04760742 114.93359375 C222.36210228 121.39286399 222.36210228 121.39286399 224.14794922 123.17871094 C224.52294922 125.99121094 224.52294922 125.99121094 224.14794922 129.17871094 C220.90659749 132.17779011 217.44964478 134.22121779 213.52685547 136.20996094 C211.89345215 137.04551514 211.89345215 137.04551514 210.22705078 137.89794922 C209.06657227 138.48560059 207.90609375 139.07325195 206.71044922 139.67871094 C204.25671316 140.93280786 201.80556242 142.19190102 199.35498047 143.45214844 C198.74105438 143.76747528 198.1271283 144.08280212 197.49459839 144.40768433 C191.91202936 147.2829741 186.39732048 150.27310548 180.89794922 153.30371094 C173.55446965 157.34783948 166.159668 161.2704786 158.71044922 165.11621094 C147.94690028 170.68479231 137.41028542 176.61493871 126.88720703 182.62255859 C122.51140548 185.10841947 118.11234899 187.55194445 113.71044922 189.99121094 C112.94047607 190.41805176 112.17050293 190.84489258 111.37719727 191.28466797 C109.63452741 192.25009451 107.89130895 193.21453071 106.14794922 194.17871094 C105.81726062 197.15608964 105.81726062 197.15608964 107.54638672 198.76464844 C108.19865234 199.35503906 108.85091797 199.94542969 109.52294922 200.55371094 C117.28850409 208.02960923 123.69343627 216.90603892 129.14794922 226.17871094 C131.91071099 225.65602628 134.47403681 225.07001507 137.14794922 224.17871094 C147.73683468 223.19173093 156.83751037 224.37126513 165.46044922 230.94042969 C173.51989461 238.46563154 180.655274 249.99485163 181.25805664 261.23120117 C181.31867423 263.65206808 181.3335647 266.06960835 181.33544922 268.49121094 C181.34769531 269.30783203 181.35994141 270.12445313 181.37255859 270.96582031 C181.40443518 284.30085775 176.70784048 296.43859848 167.42919922 306.04199219 C159.80974081 313.17871094 159.80974081 313.17871094 155.14794922 313.17871094 C155.13376953 314.10167969 155.11958984 315.02464844 155.10498047 315.97558594 C154.09661738 343.55567918 144.19371606 370.00409166 125.14794922 390.17871094 C116.95301288 397.74817706 107.6097342 403.1199729 97.58544922 407.86621094 C96.98450439 408.15181885 96.38355957 408.43742676 95.7644043 408.73168945 C47.49087497 430.99422864 -21.7800618 421.13667194 -73.10205078 419.36621094 C-74.18870026 419.33136597 -75.27534973 419.296521 -76.39492798 419.26062012 C-109.66347378 418.15407183 -142.34598184 415.12904928 -168.85205078 393.17871094 C-169.49142578 392.70175781 -170.13080078 392.22480469 -170.78955078 391.73339844 C-189.21046836 377.49130012 -198.47518647 352.46024297 -201.85205078 330.17871094 C-202.03374235 327.44929977 -202.01613892 324.91351318 -201.85205078 322.17871094 C-202.51205078 322.13746094 -203.17205078 322.09621094 -203.85205078 322.05371094 C-211.41420656 319.84808217 -216.90534715 313.78004261 -220.85205078 307.17871094 C-227.99226106 292.85131532 -229.06911725 276.70658531 -224.18017578 261.47167969 C-219.29559406 249.36079031 -211.68809658 240.85281468 -199.94189453 235.26855469 C-195.49050194 233.69846805 -191.50263843 233.62310976 -186.85205078 234.17871094 C-186.58392578 233.47746094 -186.31580078 232.77621094 -186.03955078 232.05371094 C-184.85205078 229.17871094 -184.85205078 229.17871094 -183.22705078 226.05371094 C-181.63632303 223.25879169 -181.63632303 223.25879169 -181.85205078 220.17871094 C-183.8530839 218.4057591 -185.83306611 216.82442651 -187.97705078 215.24121094 C-189.27343057 214.25569773 -190.56764188 213.26732666 -191.85986328 212.27636719 C-192.5253418 211.76605957 -193.19082031 211.25575195 -193.87646484 210.72998047 C-196.95539505 208.31234299 -199.90270717 205.75158715 -202.85205078 203.17871094 C-207.39920415 199.22764538 -212.02381865 195.4254962 -216.78955078 191.74121094 C-222.51665208 187.30872939 -228.0046893 182.64834978 -233.45288086 177.87866211 C-237.92984774 173.96226497 -242.48756971 170.16536771 -247.10986328 166.42089844 C-250.22205441 163.87617236 -253.2892482 161.28245178 -256.35205078 158.67871094 C-262.12737622 153.77308157 -267.9732548 148.96001823 -273.85205078 144.17871094 C-276.70356685 141.85016368 -279.55361251 139.52041779 -282.39111328 137.17480469 C-283.85756836 135.98534668 -285.34601014 134.82111488 -286.87548828 133.71386719 C-289.69535817 131.64199095 -290.76417122 130.60932077 -291.47705078 127.11621094 C-290.69233944 123.42806761 -289.75820386 122.5646161 -286.85205078 120.17871094 C-284.20799691 118.83440609 -281.46695162 117.81078078 -278.68798828 116.78027344 C-277.47073059 116.31347672 -277.47073059 116.31347672 -276.22888184 115.83724976 C-274.47931834 115.16726897 -272.72796413 114.50194952 -270.97503662 113.84082031 C-266.28987759 112.07260802 -261.61874509 110.26796213 -256.94580078 108.46777344 C-255.52749466 107.92289276 -255.52749466 107.92289276 -254.08053589 107.36700439 C-245.5778205 104.09318161 -237.14117215 100.67303594 -228.72705078 97.17871094 C-228.05031311 96.89796722 -227.37357544 96.61722351 -226.67633057 96.32797241 C-223.90491021 95.17810162 -221.13365132 94.02784675 -218.36306763 92.8759613 C-212.95918523 90.63131419 -207.54427365 88.41445443 -202.12548828 86.20605469 C-175.647779 75.4102631 -149.40382981 64.18991549 -123.33474731 52.43511963 C-117.34672668 49.73625133 -111.34507421 47.07140616 -105.32861328 44.43652344 C-85.69198575 35.82283476 -66.34846206 26.7240631 -47.11210632 17.25120544 C-39.72048456 13.61373583 -32.28968406 10.06089704 -24.84887695 6.52514648 C-24.0287915 6.13496338 -23.20870605 5.74478027 -22.36376953 5.34277344 C-21.59726074 4.9821582 -20.83075195 4.62154297 -20.04101562 4.25 C-18.59404328 3.54184534 -17.16582729 2.79386181 -15.76074219 2.00585938 C-10.55774655 -0.87754621 -5.71941793 -2.53626706 0 0 Z " fill="#FBFDFD" transform="translate(537.85205078125,206.8212890625)"/>
<path d="M0 0 C12.56848151 6.52120308 19.91820334 16.09761058 24.65330505 29.3114624 C26.07684902 34.42599799 25.82501574 39.58394193 25.76586914 44.85253906 C25.75925262 46.5639357 25.75925262 46.5639357 25.75250244 48.30990601 C25.74267583 50.78216614 25.72882985 53.25441286 25.71141243 55.72663116 C25.68306868 60.32890301 25.68135864 64.93092919 25.68161637 69.53327394 C25.6816442 70.20513285 25.68167203 70.87699177 25.68170071 71.56921005 C25.68175039 72.24605079 25.68180008 72.92289153 25.68185127 73.6202426 C25.68092043 82.75552749 25.66252647 91.89035117 25.59350586 101.02539062 C25.54701369 107.20275338 25.53339387 113.37929725 25.55535501 119.55680633 C25.56562161 122.81380229 25.55515559 126.06851761 25.51420784 129.32532501 C25.3254477 144.98394936 26.50163484 156.93954687 34.56620121 170.56687164 C35.91592921 172.90978176 36.98127571 175.34028787 38.015625 177.8359375 C53.44528801 213.755593 75.37945755 245.66955484 112.6953125 260.8671875 C142.01336662 272.23964567 171.96829972 260.95989282 199.27929688 249.08129883 C209.14281777 244.68840743 218.6925011 239.74945258 228.19580078 234.63183594 C250.15385523 222.81756964 269.1169533 213.20422447 294.53295898 213.18261719 C295.94643786 213.17798234 297.3599155 213.17295679 298.77339172 213.16757202 C302.6003753 213.1545051 306.42734137 213.14801357 310.25434375 213.14356136 C312.65274521 213.14061972 315.051142 213.13651277 317.44954109 213.13205719 C324.97484355 213.11839359 332.50013522 213.10872294 340.02544922 213.1048553 C348.67185548 213.10038554 357.3181028 213.08288332 365.96446079 213.0538547 C372.67307996 213.03212491 379.3816548 213.02214494 386.09030873 213.02081418 C390.08477317 213.01977365 394.07908799 213.01402897 398.07351494 212.99599457 C401.84027615 212.97931848 405.60677844 212.97745121 409.37356377 212.98613358 C411.38623847 212.9872514 413.39890535 212.97368364 415.41152954 212.9593811 C456.30481112 213.14299206 494.38790718 237.79054825 527.58984375 259.34375 C528.2226123 259.75173828 528.85538086 260.15972656 529.50732422 260.58007812 C542.91452666 269.24429821 555.93225685 278.62125572 568.58984375 288.34375 C569.15300293 288.7754248 569.71616211 289.20709961 570.29638672 289.65185547 C577.22040577 294.97380954 583.95382327 300.40024164 590.3828125 306.3203125 C592.31114892 308.08823863 594.27832353 309.78221046 596.27734375 311.46875 C633.71488114 344.18854894 633.71488114 344.18854894 635.92578125 363.23828125 C636.04815304 372.3794543 634.10077239 379.64132346 627.58984375 386.34375 C618.33733006 393.54014954 607.55910347 393.31702114 596.359375 391.94921875 C554.59359789 383.74428155 512.82434077 350.47936035 479.58984375 325.34375 C478.0943952 332.53463026 476.66335194 339.71790371 475.51000977 346.97192383 C470.18808026 380.40381275 460.69924243 416.64450492 437.58984375 442.34375 C436.9040625 443.12363281 436.21828125 443.90351562 435.51171875 444.70703125 C423.74944219 457.31880556 407.82642613 464.59705696 391.58984375 469.59375 C390.79562012 469.84020264 390.00139648 470.08665527 389.18310547 470.34057617 C377.33335754 473.81950054 365.5228275 474.7553402 353.21484375 474.71875 C352.52074402 474.71820618 351.82664429 474.71766235 351.11151123 474.71710205 C319.37116431 474.60359773 289.09617799 466.34079775 265.58984375 444.34375 C264.77 443.61542969 263.95015625 442.88710938 263.10546875 442.13671875 C232.27350141 413.48425255 230.52027515 363.56198793 228.58984375 324.34375 C228.03449951 324.62984131 227.47915527 324.91593262 226.90698242 325.21069336 C207.87074488 334.91380864 188.25354092 341.95267898 167.58984375 347.34375 C166.40261719 347.65699219 165.21539062 347.97023438 163.9921875 348.29296875 C128.86765127 355.77722731 89.82640919 349.69790259 59.42041016 330.53222656 C49.9876091 324.40807672 41.19112579 317.58764222 32.58984375 310.34375 C31.48616228 309.42259543 30.38198892 308.50202993 29.27734375 307.58203125 C28.39046875 306.84339844 27.50359375 306.10476563 26.58984375 305.34375 C21.94096582 314.11627205 17.32113021 322.90288564 12.78515625 331.734375 C0.27400096 356.09327447 0.27400096 356.09327447 -6.09765625 367.90625 C-6.80027588 369.22459839 -6.80027588 369.22459839 -7.51708984 370.56958008 C-10.08431094 375.28517955 -12.68057317 379.45954075 -16.41015625 383.34375 C-19.41015625 384.03125 -19.41015625 384.03125 -22.41015625 383.34375 C-27.35310663 379.26581594 -29.95279958 374.20280366 -32.91015625 368.59375 C-33.68456055 367.15032227 -33.68456055 367.15032227 -34.47460938 365.67773438 C-38.83971136 357.50958325 -43.11605358 349.29282199 -47.34179688 341.05175781 C-48.07172852 339.6339502 -48.07172852 339.6339502 -48.81640625 338.1875 C-49.56166313 336.70512329 -49.56166313 336.70512329 -50.32197571 335.19279957 C-51.83749785 332.28982967 -53.54077151 329.57327499 -55.33598328 326.83529949 C-64.87970602 311.75891837 -66.10414148 299.23360691 -65.8359375 281.68481445 C-65.839109 278.98008647 -65.84702942 276.27574757 -65.86071777 273.5710907 C-65.8830212 267.04579525 -65.84245331 260.52241305 -65.77956593 253.99744294 C-65.70876726 246.3806578 -65.70371584 238.76422299 -65.70110357 231.14716043 C-65.69438248 217.55383452 -65.63148924 203.96137009 -65.53515625 190.3684082 C-65.44195237 177.20720255 -65.38542515 164.04654276 -65.37109375 150.88500977 C-65.37020268 150.07259834 -65.36931161 149.26018691 -65.36839354 148.42315695 C-65.36662301 146.78627651 -65.36485491 145.14939606 -65.36308926 143.51251562 C-65.362211 142.70487561 -65.36133273 141.8972356 -65.36042786 141.06512165 C-65.35956391 140.25939009 -65.35869997 139.45365853 -65.35780984 138.62351086 C-65.34298712 126.03079342 -65.29756903 113.43816264 -65.24790627 100.845541 C-65.23022284 96.29764678 -65.21644645 91.74976059 -65.20541775 87.20184562 C-65.18764047 79.99442643 -65.15636958 72.78732899 -65.09832013 65.58011243 C-65.07202771 62.29151541 -65.05376178 59.00324987 -65.04847717 55.71454239 C-65.04144879 52.14146185 -65.00980439 48.56940454 -64.97192383 44.99653625 C-64.97538976 43.96968242 -64.97885569 42.94282858 -64.98242664 41.88485795 C-64.784832 29.41346807 -59.69290482 18.32726668 -51.37890625 9.0859375 C-37.31149393 -4.31887932 -17.72258831 -8.04556342 0 0 Z " fill="#FCFDFD" transform="translate(159.41015625,431.65625)"/>
<path d="M0 0 C1.15757812 0.56460937 2.31515625 1.12921875 3.5078125 1.7109375 C16.88104411 8.5747889 28.26171338 17.55958541 39 28 C39.54962402 28.52335937 40.09924805 29.04671875 40.66552734 29.5859375 C45.16031422 33.94482097 48.99400757 38.62290185 52.75 43.625 C53.31332031 44.36234375 53.87664062 45.0996875 54.45703125 45.859375 C62.07254818 55.90537605 62.07254818 55.90537605 61.8671875 59.00390625 C60.8049195 61.44903664 59.50436887 63.65570822 58.125 65.9375 C51.12106474 78.69947819 49.71433714 94.91184219 53.1875 109.0625 C56.72824941 119.86674938 62.93284509 128.63799729 72.54296875 134.77734375 C76.52392074 136.75832622 80.61384839 137.46890022 85 138 C84.24339477 162.55183956 75.33100407 186.50957618 57.62524414 203.84179688 C45.95584529 214.79652006 31.17965669 221.00172208 15.8125 224.8125 C15.04953613 225.00730957 14.28657227 225.20211914 13.50048828 225.40283203 C-3.73943423 229.35343006 -21.72437376 229.29570112 -39.30859375 229.23046875 C-41.49357577 229.22927058 -43.67855832 229.22882513 -45.86354065 229.2290802 C-50.41418754 229.22752982 -54.96475417 229.21935917 -59.51538086 229.20581055 C-65.25351425 229.18891255 -70.99156013 229.18508464 -76.72971535 229.18562412 C-193.89329495 229.18296307 -193.89329495 229.18296307 -222.4375 201.125 C-227.50381761 195.93672159 -231.49746534 190.36309532 -235 184 C-235.44730469 183.21367188 -235.89460938 182.42734375 -236.35546875 181.6171875 C-250.57842273 155.09684869 -249.88814714 122.57703773 -243 94 C-242.81808105 93.21093262 -242.63616211 92.42186523 -242.44873047 91.60888672 C-239.67340601 79.76601425 -235.3270365 68.9142946 -230 58 C-229.67628418 57.32807617 -229.35256836 56.65615234 -229.01904297 55.96386719 C-224.37528151 46.43081748 -218.83558305 38.09738029 -212 30 C-211.57348145 29.48840332 -211.14696289 28.97680664 -210.70751953 28.44970703 C-185.58716091 -1.36003731 -147.24616612 -15.56043561 -109.15899658 -18.84576416 C-70.98875947 -21.57259505 -34.58907672 -17.02607032 0 0 Z " fill="#80B4DA" transform="translate(595,384)"/>
<path d="M0 0 C1.06899033 -0.00281982 2.13798065 -0.00563965 3.23936462 -0.00854492 C4.40758759 -0.00652069 5.57581055 -0.00449646 6.7794342 -0.00241089 C8.01425034 -0.00416321 9.24906647 -0.00591553 10.52130127 -0.00772095 C13.91081754 -0.01137135 17.30027284 -0.01050877 20.68978572 -0.00734186 C24.25674313 -0.00480224 27.823698 -0.00716114 31.39065552 -0.00872803 C37.39883385 -0.01054906 43.40699992 -0.00814934 49.41517639 -0.00338745 C56.30741595 0.00201296 63.19962573 0.00032331 70.09186453 -0.00521386 C76.0404221 -0.00979764 81.98897085 -0.01036889 87.93752962 -0.00777519 C91.47550825 -0.00623558 95.01347306 -0.0059527 98.55145073 -0.00931168 C111.26349977 -0.01961857 123.97018694 -0.01976054 136.67250061 0.52981567 C137.49770423 0.56277678 138.32290785 0.59573788 139.17311764 0.6296978 C152.25802387 1.29663683 164.92164137 6.20910236 174.05702209 15.86526489 C191.08176698 38.95034052 183.58473905 72.40015714 180.01600647 98.95718384 C179.73558601 101.04798655 179.46227399 103.13962057 179.18983459 105.23147583 C173.9477865 144.49829906 164.39366501 188.54345596 132.97499084 215.37698364 C108.34314981 234.0940698 77.56281277 237.45263717 47.59999084 234.50198364 C21.05427701 230.56117664 -4.85490646 219.44604637 -21.31016541 197.40042114 C-23.08372252 194.6952593 -24.70326551 191.95374677 -26.27500916 189.12698364 C-26.79707947 188.22721802 -27.31914978 187.32745239 -27.85704041 186.40042114 C-39.71150712 164.61221144 -41.46534579 137.46217701 -43.07041931 113.1880188 C-43.21253401 111.06172521 -43.36953371 108.93639511 -43.53819275 106.81204224 C-44.42786714 94.719179 -44.49553331 82.62963004 -44.51524353 70.50784302 C-44.52502727 66.87024726 -44.55618544 63.23319951 -44.58750916 59.59573364 C-44.59403459 57.2467786 -44.59928686 54.8978196 -44.60313416 52.54885864 C-44.62165436 50.94527496 -44.62165436 50.94527496 -44.64054871 49.30929565 C-44.60602845 37.47811333 -42.01096583 27.87877079 -35.27500916 18.12698364 C-34.69750916 17.24010864 -34.12000916 16.35323364 -33.52500916 15.43948364 C-24.97682628 6.65385124 -12.40715851 0.00504237 0 0 Z " fill="#80B4DA" transform="translate(445.27500915527344,657.8730163574219)"/>
<path d="M0 0 C1.75167623 0.95826165 3.47003594 1.97831709 5.1640625 3.03515625 C6.19031738 3.67146973 7.21657227 4.3077832 8.27392578 4.96337891 C9.37978027 5.65608887 10.48563477 6.34879883 11.625 7.0625 C12.78983362 7.78623748 13.95504196 8.50937217 15.12060547 9.23193359 C17.54422553 10.73526543 19.96620916 12.24117681 22.38671875 13.74951172 C40.09791717 24.78464996 57.91473557 35.58863189 76 46 C77.65902344 46.9590625 77.65902344 46.9590625 79.3515625 47.9375 C120.03843326 71.44955172 161.59183278 93.90026585 205 112 C205 112.66 205 113.32 205 114 C203.77216797 114.60521484 203.77216797 114.60521484 202.51953125 115.22265625 C180.76214834 126.00019335 159.24247675 137.24115151 138 149 C136.26984638 149.95468735 134.53969083 150.90937121 132.80947876 151.86395264 C130.38309629 153.20343604 127.95796069 154.54516282 125.53326416 155.88769531 C123.80882339 156.84243241 122.08386412 157.7962328 120.35888672 158.75 C114.44526095 162.03426158 108.60025949 165.39585982 102.83691406 168.93798828 C101 170 101 170 100 170 C100.03029297 168.80737549 100.06058594 167.61475098 100.09179688 166.38598633 C100.20626536 161.85138194 100.31721837 157.31669654 100.42724609 152.78198242 C100.47482809 150.83990236 100.52329438 148.8978437 100.57275391 146.95581055 C100.71727976 141.26768599 100.8368943 135.57976125 100.93701172 129.89068604 C101.00140655 126.9354498 101.10306318 123.98289218 101.20703125 121.02880859 C101.25362849 119.12730347 101.29923937 117.22577386 101.34375 115.32421875 C101.38375122 114.44441849 101.42375244 113.56461823 101.46496582 112.65815735 C101.57983463 107.63869638 101.57983463 107.63869638 98.85229492 103.55371094 C95.9287331 101.96117927 93.19568526 100.81414448 90.01953125 99.81640625 C88.86453125 99.44862061 87.70953125 99.08083496 86.51953125 98.7019043 C85.29621094 98.32590088 84.07289063 97.94989746 82.8125 97.5625 C81.53890614 97.16431813 80.2654696 96.76563275 78.9921875 96.36645508 C75.33273763 95.22849539 71.66817341 94.10948025 68 93 C67.0929834 92.72446289 66.1859668 92.44892578 65.25146484 92.16503906 C54.35032872 88.89047728 43.33785178 86.46997255 32.14892578 84.39794922 C30.36699274 84.06796162 28.58744982 83.72509733 26.80859375 83.37890625 C-34.12250127 72.19809365 -111.08273873 83.02104178 -163.06640625 118.78515625 C-165 120 -165 120 -167 120 C-167.58315443 130.86487012 -165.79458756 141.26007236 -164.0625 151.9375 C-163.78108222 153.71927191 -163.50047753 155.50117244 -163.22070312 157.28320312 C-161.94087472 165.57372071 -161.94087472 165.57372071 -160.43334961 173.82421875 C-159.45270839 178.74786636 -159.35938184 181.9234056 -161.96875 186.30859375 C-162.7955449 187.36505391 -163.63977788 188.40807503 -164.5 189.4375 C-164.92925781 189.97826172 -165.35851562 190.51902344 -165.80078125 191.07617188 C-166.85215429 192.39622913 -167.92405156 193.69989563 -169 195 C-172.94565602 193.3416808 -175.93412075 190.65282045 -179.125 187.875 C-180.29076648 186.87395074 -181.45744121 185.87395825 -182.625 184.875 C-183.19863281 184.38386719 -183.77226562 183.89273438 -184.36328125 183.38671875 C-187.37078853 180.83859206 -190.46389554 178.39983816 -193.55078125 175.94921875 C-200.86627252 170.12716111 -208.03923297 164.14000886 -215.16333008 158.08666992 C-218.58001329 155.18792655 -222.02478077 152.32866681 -225.5 149.5 C-229.53983452 146.2117626 -233.53083277 142.87268539 -237.5 139.5 C-244.29072629 133.73217805 -251.15519458 128.05760431 -258.12890625 122.51171875 C-259.13824219 121.70347656 -260.14757812 120.89523437 -261.1875 120.0625 C-262.57001953 118.96615234 -262.57001953 118.96615234 -263.98046875 117.84765625 C-264.98013672 116.93306641 -264.98013672 116.93306641 -266 116 C-266 115.34 -266 114.68 -266 114 C-264.93193115 113.56880859 -263.8638623 113.13761719 -262.76342773 112.69335938 C-213.23889726 92.69470796 -163.74831236 72.63764838 -114.96624756 50.87634277 C-113.04284548 50.01909593 -111.11853706 49.16392246 -109.19384766 48.30957031 C-83.5247238 36.91384836 -58.12203693 24.97545653 -32.75 12.9375 C-31.88651947 12.52804138 -31.02303894 12.11858276 -30.13339233 11.69671631 C-27.64563208 10.51649203 -25.15871837 9.33449847 -22.671875 8.15234375 C-21.8964888 7.78520264 -21.1211026 7.41806152 -20.32221985 7.03979492 C-15.4457793 4.72184828 -10.6426307 2.30063527 -5.91894531 -0.31811523 C-3.44429648 -1.19746564 -2.43749948 -0.9514018 0 0 Z " fill="#80B4DA" transform="translate(534,221)"/>
<path d="M0 0 C0.65251173 -0.00282738 1.30502346 -0.00565475 1.97730827 -0.00856781 C5.44377907 -0.02346154 8.91020945 -0.03274776 12.37670898 -0.03710938 C15.17957867 -0.04145441 17.98213364 -0.05520412 20.78491211 -0.078125 C59.88963552 -0.39116298 107.82244175 1.66175234 137.72265625 30.6640625 C150.43967272 44.48690649 152.85524528 57.39936144 152.2421875 75.57958984 C151.87001734 80.89786178 150.37523997 85.44196572 148.05859375 90.203125 C147.46304688 91.44255859 147.46304688 91.44255859 146.85546875 92.70703125 C142.35452398 101.35283338 136.94832785 107.72412149 127.43359375 110.890625 C116.05600088 113.93533879 103.81738124 113.48393801 92.10546875 113.7578125 C91.24545006 113.77874844 90.38543137 113.79968437 89.4993515 113.82125473 C70.00219187 114.28784985 50.50777644 114.35703178 31.00585938 114.33349609 C27.21482776 114.32894913 23.42384408 114.32892721 19.6328125 114.33349609 C7.40876677 114.348123 -4.8142159 114.31948526 -17.03793335 114.22523499 C-19.00970677 114.2102199 -20.98148904 114.19633289 -22.95327759 114.18345642 C-29.01248016 114.14287398 -35.07074917 114.07971662 -41.12937164 113.98604965 C-43.02703187 113.9593019 -44.92479334 113.93884833 -46.82259369 113.92529678 C-63.09934123 113.79842451 -76.6831798 111.46353762 -89.23046875 100.13671875 C-99.31727895 89.57767961 -102.33862871 76.92187844 -102.31225586 62.71777344 C-101.92882009 48.09266684 -95.37760606 35.06073536 -85.421875 24.5546875 C-63.05939521 3.35435233 -29.42685958 0.10087884 0 0 Z " fill="#80B4DA" transform="translate(481.94140625,414.796875)"/>
<path d="M0 0 C2.24362918 2.99150558 3.64985795 5.1248079 5.12890625 8.421875 C5.51884766 9.27458984 5.90878906 10.12730469 6.31054688 11.00585938 C6.72369141 11.91142578 7.13683594 12.81699219 7.5625 13.75 C18.22780043 36.57280048 32.82476901 57.60918093 53 73 C53.77859375 73.60585938 54.5571875 74.21171875 55.359375 74.8359375 C65.96139361 82.69850835 78.30339357 88.47704052 91 92 C92.74796875 92.53560547 92.74796875 92.53560547 94.53125 93.08203125 C133.09325053 102.53172035 173.54182082 80.06176689 207 64 C206.86722656 64.65226563 206.73445312 65.30453125 206.59765625 65.9765625 C206.42105469 66.85054687 206.24445313 67.72453125 206.0625 68.625 C205.88847656 69.48351562 205.71445312 70.34203125 205.53515625 71.2265625 C205.35855469 72.14179687 205.18195313 73.05703125 205 74 C204.83048828 74.83208984 204.66097656 75.66417969 204.48632812 76.52148438 C203.83764181 81.16128488 203.76563311 85.74981063 203.68359375 90.4296875 C203.6524221 91.915186 203.6524221 91.915186 203.62062073 93.43069458 C203.5554968 96.57872918 203.49641371 99.72684367 203.4375 102.875 C203.39427941 105.0156331 203.35066401 107.15625826 203.30664062 109.296875 C203.19985372 114.53116676 203.09801988 119.76553712 203 125 C162.47071227 146.51081402 115.93750947 161.66463184 70.31079102 148.15185547 C44.42149451 139.92598061 22.53889623 123.22166876 3.890625 103.86328125 C2.13027134 101.9362568 2.13027134 101.9362568 0 101 C0 67.67 0 34.34 0 0 Z " fill="#80B4DA" transform="translate(185,616)"/>
<path d="M0 0 C0.98871094 -0.0061734 1.97742188 -0.0123468 2.99609375 -0.01870728 C16.95286647 -0.07474636 30.37687286 1.03949261 44.125 3.4375 C45.36072754 3.65204834 46.59645508 3.86659668 47.86962891 4.08764648 C50.92174309 4.64772848 53.96124151 5.24681109 57 5.875 C58.05823975 6.0918042 59.11647949 6.3086084 60.20678711 6.53198242 C76.61757279 9.94686369 92.2730202 15.02549348 108.125 20.4375 C108.20109871 31.76035353 107.96452306 43.05794431 107.625 54.375 C107.57662516 56.04100989 107.52844703 57.70702551 107.48046875 59.37304688 C107.36423725 63.39460057 107.24537722 67.41606835 107.125 71.4375 C106.41794922 70.97786865 105.71089844 70.5182373 104.98242188 70.04467773 C99.64100873 66.60336668 94.33625583 63.28825096 88.625 60.5 C87.95976318 60.17281982 87.29452637 59.84563965 86.60913086 59.50854492 C67.00000213 50.00417808 47.72133549 43.43067632 26.125 40.4375 C25.08085938 40.28087891 25.08085938 40.28087891 24.015625 40.12109375 C1.04326851 36.70978517 -21.98495377 38.12467456 -44.875 41.4375 C-45.68646484 41.54964844 -46.49792969 41.66179687 -47.33398438 41.77734375 C-74.90462998 45.66458882 -106.84333134 56.46131537 -126.515625 77.1640625 C-127.875 78.4375 -127.875 78.4375 -129.875 78.4375 C-130.75792604 72.95810892 -131.63045539 67.47720114 -132.4934082 61.99462891 C-132.78840817 60.12991773 -133.08623985 58.26565224 -133.38696289 56.40185547 C-133.81882769 53.72215222 -134.24046987 51.04100908 -134.66015625 48.359375 C-134.79656021 47.52694275 -134.93296417 46.6945105 -135.07350159 45.83685303 C-135.19370163 45.05634583 -135.31390167 44.27583862 -135.43774414 43.47167969 C-135.54655411 42.78773132 -135.65536407 42.10378296 -135.76747131 41.39910889 C-135.89113198 39.14320989 -135.67170613 37.55389969 -134.875 35.4375 C-132.63484914 33.83695505 -130.53672911 32.54088608 -128.125 31.25 C-127.05958984 30.66907593 -127.05958984 30.66907593 -125.97265625 30.07641602 C-103.43671855 18.06904732 -78.89939526 9.64397363 -53.81787109 4.98876953 C-51.87466805 4.62476153 -49.93465479 4.24323754 -47.99853516 3.84326172 C-32.01251176 0.57004782 -16.26195977 0.0430016 0 0 Z " fill="#80B4DA" transform="translate(514.875,313.5625)"/>
<path d="M0 0 C6.15166418 2.32335735 11.7369048 5.62857924 17.4375 8.875 C18.04559509 9.22092194 18.65369019 9.56684387 19.2802124 9.92324829 C46.00330996 25.1948915 71.58536407 42.91076285 95.26025391 62.56445312 C96.81117592 63.84419231 98.37909147 65.10327317 99.94921875 66.359375 C110.40114273 74.72091418 120.45842799 83.67109465 129 94 C129.87398437 94.98613281 130.74796875 95.97226562 131.6484375 96.98828125 C146.64275038 113.97558928 146.64275038 113.97558928 146.1875 122.875 C145.33565875 127.12660053 143.45799691 129.34618842 140 132 C133.81736867 135.63533602 126.84457197 134.36452712 120.125 132.8125 C109.15439038 129.74294559 99.06483707 124.69399586 89 119.4375 C88.41695099 119.13386536 87.83390198 118.83023071 87.23318481 118.51739502 C70.54998057 109.81239946 54.66981618 100.04261762 39.12744141 89.44824219 C37.06316841 88.04300149 34.99141908 86.64946387 32.91796875 85.2578125 C30.27409064 83.47911571 27.6609076 81.66470186 25.0625 79.8203125 C22.17094965 77.77189243 19.21389083 75.89731062 16.1875 74.0546875 C4.59845476 66.67642269 4.59845476 66.67642269 3.15625 60.2265625 C3.23616611 56.40344925 3.95774007 52.68091168 4.61035156 48.92089844 C5.41701004 42.87399237 5.29793012 36.77808181 5.3125 30.6875 C5.34077881 29.43654541 5.36905762 28.18559082 5.39819336 26.89672852 C5.46265796 18.25676023 3.97091042 11.09514638 1 3 C0.67 2.01 0.34 1.02 0 0 Z " fill="#80B4DA" transform="translate(636,677)"/>
<path d="M0 0 C0.65251173 -0.00282738 1.30502346 -0.00565475 1.97730827 -0.00856781 C5.44377907 -0.02346154 8.91020945 -0.03274776 12.37670898 -0.03710938 C15.17957867 -0.04145441 17.98213364 -0.05520412 20.78491211 -0.078125 C59.88963552 -0.39116298 107.82244175 1.66175234 137.72265625 30.6640625 C150.43967272 44.48690649 152.85524528 57.39936144 152.2421875 75.57958984 C151.87001734 80.89786178 150.37523997 85.44196572 148.05859375 90.203125 C147.46304688 91.44255859 147.46304688 91.44255859 146.85546875 92.70703125 C142.35452398 101.35283338 136.94832785 107.72412149 127.43359375 110.890625 C116.05600088 113.93533879 103.81738124 113.48393801 92.10546875 113.7578125 C91.24545006 113.77874844 90.38543137 113.79968437 89.4993515 113.82125473 C70.00219187 114.28784985 50.50777644 114.35703178 31.00585938 114.33349609 C27.21482776 114.32894913 23.42384408 114.32892721 19.6328125 114.33349609 C7.40876677 114.348123 -4.8142159 114.31948526 -17.03793335 114.22523499 C-19.00970677 114.2102199 -20.98148904 114.19633289 -22.95327759 114.18345642 C-29.01248016 114.14287398 -35.07074917 114.07971662 -41.12937164 113.98604965 C-43.02703187 113.9593019 -44.92479334 113.93884833 -46.82259369 113.92529678 C-63.09934123 113.79842451 -76.6831798 111.46353762 -89.23046875 100.13671875 C-99.31727895 89.57767961 -102.33862871 76.92187844 -102.31225586 62.71777344 C-101.92882009 48.09266684 -95.37760606 35.06073536 -85.421875 24.5546875 C-63.05939521 3.35435233 -29.42685958 0.10087884 0 0 Z M-78.69140625 37.015625 C-87.31817595 47.3437298 -90.05204268 58.9609214 -88.94140625 72.203125 C-87.11248349 81.85705908 -82.74234263 89.07261532 -74.703125 94.796875 C-66.91509525 99.42396003 -59.14970737 100.49903701 -50.25390625 100.6171875 C-49.30885223 100.63668961 -48.36379822 100.65619171 -47.3901062 100.67628479 C-44.24062873 100.73748115 -41.09116281 100.78372701 -37.94140625 100.828125 C-36.83541077 100.84614166 -35.72941528 100.86415833 -34.58990479 100.88272095 C-26.04068584 101.02185408 -17.49135558 101.12159937 -8.94140625 101.203125 C-7.68678589 101.21514954 -6.43216553 101.22717407 -5.13952637 101.23956299 C26.19522184 101.52199812 57.51278214 101.33588714 88.83779144 100.50781631 C90.97879357 100.45356339 93.11984808 100.40594938 95.26104736 100.36019897 C99.24511441 100.27368598 103.2278303 100.15454559 107.2109375 100.03125 C108.38300247 100.00813248 109.55506744 99.98501495 110.76264954 99.9611969 C118.23102031 99.69065669 125.24374294 98.82648019 130.87120056 93.48150635 C138.22807517 85.06522443 139.78771173 73.48940357 139.43359375 62.7109375 C138.30117239 52.11807933 132.50025264 43.95705449 124.5859375 37.04296875 C107.34954443 23.86817051 86.33837887 17.7073669 65.05859375 15.203125 C64.21264648 15.10016113 63.36669922 14.99719727 62.49511719 14.89111328 C21.04769505 10.1364525 -47.27108033 3.57686272 -78.69140625 37.015625 Z " fill="#FCFDFD" transform="translate(481.94140625,414.796875)"/>
<path d="M0 0 C8.58 0 17.16 0 26 0 C26 73.92 26 147.84 26 224 C17.42 224 8.84 224 0 224 C0 150.08 0 76.16 0 0 Z " fill="#81B4DA" transform="translate(146,508)"/>
<path d="M0 0 C8.25 0 16.5 0 25 0 C25 73.92 25 147.84 25 224 C16.75 223.67 8.5 223.34 0 223 C0 149.41 0 75.82 0 0 Z " fill="#81B5DA" transform="translate(108,508)"/>
<path d="M0 0 C9.59758812 4.93006806 15.23142355 13.30364564 18.5703125 23.3203125 C18.5703125 32.5603125 18.5703125 41.8003125 18.5703125 51.3203125 C-2.2196875 51.3203125 -23.0096875 51.3203125 -44.4296875 51.3203125 C-44.4296875 15.91588004 -44.4296875 15.91588004 -34.72265625 5.37109375 C-24.77118334 -3.52928662 -12.13276095 -4.94297668 0 0 Z " fill="#80B4DA" transform="translate(153.4296875,443.6796875)"/>
<path d="M0 0 C7.1234367 3.46545569 11.77644976 10.99574454 14.34179688 18.23828125 C15.3269195 21.92005267 15.36755242 25.48944685 15.296875 29.28125 C15.28672363 30.07136475 15.27657227 30.86147949 15.26611328 31.67553711 C15.00557394 41.50029386 12.65007508 49.96981833 5.921875 57.40625 C0.44789955 61.99153168 -4.63450714 64.29194121 -11.82421875 63.796875 C-18.39731841 62.65768962 -22.59138559 58.82012636 -26.4296875 53.55078125 C-33.09634078 43.47282878 -33.31384945 32.06755502 -31.6484375 20.39453125 C-29.65934098 12.57320726 -24.84702678 6.13224798 -18.390625 1.34375 C-12.76089922 -1.81064888 -6.11564804 -1.74732801 0 0 Z " fill="#80B4DA" transform="translate(691.078125,445.59375)"/>
<path d="M0 0 C4.90097152 3.63918294 9.02327789 8.84114248 10.48828125 14.84765625 C11.37363906 23.18611707 9.58573531 29.54232528 4.36328125 36.09765625 C-0.84213167 41.62976872 -6.38642232 43.99414911 -13.94921875 44.41015625 C-20.78732168 44.11326383 -26.54432343 41.83962627 -31.3984375 36.9453125 C-37.35303198 29.43358436 -38.28559047 22.26098116 -37.51171875 12.84765625 C-35.79463269 6.30126564 -31.92747774 2.62405035 -26.51171875 -1.15234375 C-17.47361994 -6.27815931 -8.70467334 -5.20802945 0 0 Z " fill="#FBFCFD" transform="translate(463.51171875,457.15234375)"/>
<path d="M0 0 C6.30170531 2.81396904 10.24481012 6.80782665 13.75 12.6875 C15.7554807 19.76566718 15.83841927 25.9819789 12.75 32.75 C9.55431423 38.46047259 4.98386939 43.04649825 -1.1875 45.4375 C-9.19348372 46.23071959 -17.62853669 46.73152038 -24.1875 41.4375 C-29.36535986 36.74654898 -32.50962889 31.35206557 -33.46875 24.3984375 C-33.79585254 17.33847439 -31.3129995 12.57081446 -27 7.3125 C-18.97333839 -1.31868006 -11.39526259 -3.97710227 0 0 Z " fill="#FCFDFD" transform="translate(558.1875,454.5625)"/>
<path d="M0 0 C17.49 0 34.98 0 53 0 C51.48997998 4.53006005 50.05010907 8.03087417 47.8046875 12.1484375 C47.49577072 12.71895844 47.18685394 13.28947937 46.86857605 13.87728882 C46.21214227 15.08898458 45.55368579 16.29958645 44.89334106 17.50915527 C43.18540767 20.63849832 41.49291094 23.77615312 39.80078125 26.9140625 C39.46942673 27.52797852 39.1380722 28.14189453 38.79667664 28.77441406 C35.03175172 35.76810447 31.4716194 42.85711535 28 50 C27.34 50 26.68 50 26 50 C18.81199429 36.62666065 11.62485333 23.25275475 4.5625 9.8125 C4.09674561 8.92925049 3.63099121 8.04600098 3.15112305 7.13598633 C2.7312915 6.33443115 2.31145996 5.53287598 1.87890625 4.70703125 C1.5135376 4.0106958 1.14816895 3.31436035 0.77172852 2.59692383 C0 1 0 1 0 0 Z " fill="#80B4DA" transform="translate(113,745)"/>
<path d="M0 0 C1.96549482 0.90412762 3.84195521 1.88227301 5.71484375 2.96484375 C11.90501332 5.76893766 18.05318316 6.36178927 24.75 6.3125 C25.5349585 6.30831055 26.31991699 6.30412109 27.12866211 6.29980469 C36.59122495 6.11755268 44.57265481 3.78812257 53.1015625 -0.19921875 C55.61274212 -1.25846118 57.3260304 -1.61119305 60 -1 C62.99948609 1.10774698 63.87017778 2.32203951 64.5625 5.9375 C63.80120209 10.0823442 62.19620942 11.29387602 59 14 C56.47131162 15.09918836 54.17782642 15.97296383 51.5625 16.75 C50.91990234 16.95753906 50.27730469 17.16507813 49.61523438 17.37890625 C33.23301489 22.53473167 11.90377115 22.54964142 -3.578125 14.69140625 C-8.64769207 11.70461586 -8.64769207 11.70461586 -10 9 C-10.44778928 2.84289746 -10.44778928 2.84289746 -8.9375 0 C-5.71447753 -1.66349547 -3.45917495 -0.85061679 0 0 Z " fill="#FBFDFD" transform="translate(467,560)"/>
<path d="M0 0 C-0.60368771 4.21910632 -1.56787658 8.22354077 -2.71386719 12.31738281 C-7.0022708 27.69102471 -9.30920085 43.0639782 -10 59 C-10.66 59 -11.32 59 -12 59 C-19.52986083 50.12776844 -21.61156171 41.24026462 -21.34765625 29.7890625 C-20.37402473 19.17757295 -16.27903747 10.6651959 -8.3125 3.625 C-3.15384615 0 -3.15384615 0 0 0 Z " fill="#81B5DA" transform="translate(345,455)"/>
<path d="M0 0 C3.8247191 2.59480943 5.70783404 5.56838682 6.625 10.0625 C5.6917025 14.44899825 3.78395243 17.64665677 0.1875 20.375 C-4.60058971 21.74302563 -7.93012753 21.58540192 -12.3125 19.1875 C-15.6325922 16.48509937 -16.87278304 14.96321412 -17.4375 10.6875 C-16.86060851 5.82512891 -15.41861299 4.41861299 -12 1 C-8.22242993 -0.88878504 -4.09282148 -0.76349269 0 0 Z " fill="#82B5DA" transform="translate(455,467)"/>
<path d="M0 0 C3.6578218 2.03993908 5.66946174 3.50419262 8 7 C8.44360262 11.93507915 7.63666068 15.22009067 4.5 19.0625 C1.18357365 21.36401997 -1.90950501 21.65448792 -5.87890625 21.43359375 C-9.04410413 20.78656435 -10.81744488 19.31896482 -13 17 C-14.60306924 13.79386153 -14.48740461 10.47860003 -14 7 C-10.50204098 1.25335305 -6.69562884 -0.80347546 0 0 Z " fill="#81B4DA" transform="translate(552,466)"/>
<path d="M0 0 C0.33 0 0.66 0 1 0 C1.33 6.27 1.66 12.54 2 19 C1.01 19.33 0.02 19.66 -1 20 C-1.10152799 13.2314676 -1.03026944 6.69675136 0 0 Z " fill="#8CB9DB" transform="translate(635,371)"/>
</svg>
