<?xml version="1.0" encoding="UTF-8" standalone="no"?>
<!DOCTYPE svg PUBLIC "-//W3C//DTD SVG 1.1//EN"
 "http://www.w3.org/Graphics/SVG/1.1/DTD/svg11.dtd">
<!-- Generated by graphviz version 2.43.0 (0)
 -->
<!-- Title: AI_Study_Buddy_System Pages: 1 -->
<svg width="576pt" height="196pt"
 viewBox="0.00 0.00 576.00 195.75" xmlns="http://www.w3.org/2000/svg" xmlns:xlink="http://www.w3.org/1999/xlink">
<g id="graph0" class="graph" transform="scale(0.37 0.37) rotate(0) translate(4 522.24)">
<title>AI_Study_Buddy_System</title>
<polygon fill="white" stroke="transparent" points="-4,4 -4,-522.24 1544.5,-522.24 1544.5,4 -4,4"/>
<!-- Users -->
<g id="node1" class="node">
<title>Users</title>
<ellipse fill="none" stroke="black" cx="849.5" cy="-500.24" rx="80.69" ry="18"/>
<text text-anchor="middle" x="849.5" y="-496.54" font-family="Times,serif" font-size="14.00">[Users/Clients]</text>
</g>
<!-- LB -->
<g id="node2" class="node">
<title>LB</title>
<ellipse fill="none" stroke="black" cx="849.5" cy="-428.24" rx="186.57" ry="18"/>
<text text-anchor="middle" x="849.5" y="-424.54" font-family="Times,serif" font-size="14.00">[Load Balancer: NGINX / K8s Ingress]</text>
</g>
<!-- Users&#45;&gt;LB -->
<g id="edge1" class="edge">
<title>Users&#45;&gt;LB</title>
<path fill="none" stroke="black" d="M849.5,-481.94C849.5,-474.22 849.5,-464.95 849.5,-456.35"/>
<polygon fill="black" stroke="black" points="853,-456.34 849.5,-446.34 846,-456.34 853,-456.34"/>
</g>
<!-- UI -->
<g id="node3" class="node">
<title>UI</title>
<ellipse fill="none" stroke="black" cx="849.5" cy="-356.24" rx="159.47" ry="18"/>
<text text-anchor="middle" x="849.5" y="-352.54" font-family="Times,serif" font-size="14.00">[Presentation Layer: React SPA]</text>
</g>
<!-- LB&#45;&gt;UI -->
<g id="edge2" class="edge">
<title>LB&#45;&gt;UI</title>
<path fill="none" stroke="black" d="M849.5,-409.94C849.5,-402.22 849.5,-392.95 849.5,-384.35"/>
<polygon fill="black" stroke="black" points="853,-384.34 849.5,-374.34 846,-384.34 853,-384.34"/>
</g>
<!-- API -->
<g id="node4" class="node">
<title>API</title>
<ellipse fill="none" stroke="black" cx="849.5" cy="-275.37" rx="169" ry="26.74"/>
<text text-anchor="middle" x="849.5" y="-279.17" font-family="Times,serif" font-size="14.00">[API Gateway: Node.js/Express</text>
<text text-anchor="middle" x="849.5" y="-264.17" font-family="Times,serif" font-size="14.00">Kong / AWS API Gateway]</text>
</g>
<!-- UI&#45;&gt;API -->
<g id="edge3" class="edge">
<title>UI&#45;&gt;API</title>
<path fill="none" stroke="black" d="M849.5,-338.13C849.5,-330.64 849.5,-321.55 849.5,-312.67"/>
<polygon fill="black" stroke="black" points="853,-312.45 849.5,-302.45 846,-312.45 853,-312.45"/>
</g>
<!-- BL -->
<g id="node5" class="node">
<title>BL</title>
<ellipse fill="none" stroke="black" cx="849.5" cy="-194.5" rx="186.57" ry="18"/>
<text text-anchor="middle" x="849.5" y="-190.8" font-family="Times,serif" font-size="14.00">[Business Logic Layer: Microservices]</text>
</g>
<!-- API&#45;&gt;BL -->
<g id="edge4" class="edge">
<title>API&#45;&gt;BL</title>
<path fill="none" stroke="black" d="M849.5,-248.11C849.5,-240.01 849.5,-231.07 849.5,-222.89"/>
<polygon fill="black" stroke="black" points="853,-222.72 849.5,-212.72 846,-222.72 853,-222.72"/>
</g>
<!-- UserSvc -->
<g id="node6" class="node">
<title>UserSvc</title>
<polygon fill="none" stroke="black" points="187,-133.38 0,-133.38 0,-95.38 187,-95.38 187,-133.38"/>
<text text-anchor="middle" x="93.5" y="-118.17" font-family="Times,serif" font-size="14.00">User Service</text>
<text text-anchor="middle" x="93.5" y="-103.17" font-family="Times,serif" font-size="14.00">(Node.js: Auth, Profiles)</text>
</g>
<!-- BL&#45;&gt;UserSvc -->
<g id="edge5" class="edge">
<title>BL&#45;&gt;UserSvc</title>
<path fill="none" stroke="black" d="M678.87,-187.18C546.37,-180.47 358.39,-166.99 195.5,-140.5 187.22,-139.15 178.62,-137.48 170.09,-135.64"/>
<polygon fill="black" stroke="black" points="170.64,-132.18 160.12,-133.41 169.12,-139.01 170.64,-132.18"/>
</g>
<!-- NoteSvc -->
<g id="node7" class="node">
<title>NoteSvc</title>
<polygon fill="none" stroke="black" points="1114.5,-133.38 888.5,-133.38 888.5,-95.38 1114.5,-95.38 1114.5,-133.38"/>
<text text-anchor="middle" x="1001.5" y="-118.17" font-family="Times,serif" font-size="14.00">Note Service</text>
<text text-anchor="middle" x="1001.5" y="-103.17" font-family="Times,serif" font-size="14.00">(Node.js: Uploads, Metadata)</text>
</g>
<!-- BL&#45;&gt;NoteSvc -->
<g id="edge6" class="edge">
<title>BL&#45;&gt;NoteSvc</title>
<path fill="none" stroke="black" d="M882.11,-176.74C904.08,-165.45 933.32,-150.42 957.36,-138.06"/>
<polygon fill="black" stroke="black" points="959,-141.15 966.3,-133.47 955.8,-134.93 959,-141.15"/>
</g>
<!-- AISvc -->
<g id="node8" class="node">
<title>AISvc</title>
<polygon fill="none" stroke="black" points="870.5,-133.38 526.5,-133.38 526.5,-95.38 870.5,-95.38 870.5,-133.38"/>
<text text-anchor="middle" x="698.5" y="-118.17" font-family="Times,serif" font-size="14.00">AI Processing Service</text>
<text text-anchor="middle" x="698.5" y="-103.17" font-family="Times,serif" font-size="14.00">(Python/Flask: Summarization, OCR, Quizzes)</text>
</g>
<!-- BL&#45;&gt;AISvc -->
<g id="edge7" class="edge">
<title>BL&#45;&gt;AISvc</title>
<path fill="none" stroke="black" d="M817.11,-176.74C795.38,-165.5 766.49,-150.55 742.66,-138.22"/>
<polygon fill="black" stroke="black" points="743.96,-134.96 733.47,-133.47 740.74,-141.17 743.96,-134.96"/>
</g>
<!-- GameSvc -->
<g id="node9" class="node">
<title>GameSvc</title>
<polygon fill="none" stroke="black" points="508,-133.38 205,-133.38 205,-95.38 508,-95.38 508,-133.38"/>
<text text-anchor="middle" x="356.5" y="-118.17" font-family="Times,serif" font-size="14.00">Gamification Service</text>
<text text-anchor="middle" x="356.5" y="-103.17" font-family="Times,serif" font-size="14.00">(Node.js: Points, Badges, Leaderboards)</text>
</g>
<!-- BL&#45;&gt;GameSvc -->
<g id="edge8" class="edge">
<title>BL&#45;&gt;GameSvc</title>
<path fill="none" stroke="black" d="M757.06,-178.85C678.88,-166.46 566.2,-148.61 480.25,-134.98"/>
<polygon fill="black" stroke="black" points="480.59,-131.5 470.17,-133.39 479.49,-138.41 480.59,-131.5"/>
</g>
<!-- Redis -->
<g id="node12" class="node">
<title>Redis</title>
<path fill="none" stroke="black" d="M1274.5,-135.85C1274.5,-138.49 1242.68,-140.63 1203.5,-140.63 1164.32,-140.63 1132.5,-138.49 1132.5,-135.85 1132.5,-135.85 1132.5,-92.9 1132.5,-92.9 1132.5,-90.26 1164.32,-88.12 1203.5,-88.12 1242.68,-88.12 1274.5,-90.26 1274.5,-92.9 1274.5,-92.9 1274.5,-135.85 1274.5,-135.85"/>
<path fill="none" stroke="black" d="M1274.5,-135.85C1274.5,-133.22 1242.68,-131.08 1203.5,-131.08 1164.32,-131.08 1132.5,-133.22 1132.5,-135.85"/>
<text text-anchor="middle" x="1203.5" y="-118.17" font-family="Times,serif" font-size="14.00">Redis</text>
<text text-anchor="middle" x="1203.5" y="-103.17" font-family="Times,serif" font-size="14.00">(Cache, Sessions)</text>
</g>
<!-- BL&#45;&gt;Redis -->
<g id="edge14" class="edge">
<title>BL&#45;&gt;Redis</title>
<path fill="none" stroke="black" d="M939.53,-178.73C990.75,-169.71 1056.2,-157.13 1122.33,-140.7"/>
<polygon fill="black" stroke="black" points="1123.24,-144.08 1132.09,-138.24 1121.53,-137.29 1123.24,-144.08"/>
</g>
<!-- Obs -->
<g id="node13" class="node">
<title>Obs</title>
<polygon fill="none" stroke="black" points="1536.5,-133.38 1292.5,-133.38 1292.5,-95.38 1536.5,-95.38 1536.5,-133.38"/>
<text text-anchor="middle" x="1414.5" y="-118.17" font-family="Times,serif" font-size="14.00">[Observability &amp; Management]</text>
<text text-anchor="middle" x="1414.5" y="-103.17" font-family="Times,serif" font-size="14.00">Prometheus, Grafana, ELK, K8s</text>
</g>
<!-- BL&#45;&gt;Obs -->
<g id="edge15" class="edge">
<title>BL&#45;&gt;Obs</title>
<path fill="none" stroke="black" d="M971.4,-180.85C1058.56,-171.27 1178.51,-156.96 1283.5,-140.5 1293.64,-138.91 1304.2,-137.12 1314.73,-135.24"/>
<polygon fill="black" stroke="black" points="1315.58,-138.64 1324.79,-133.42 1314.33,-131.75 1315.58,-138.64"/>
</g>
<!-- DB -->
<g id="node10" class="node">
<title>DB</title>
<path fill="none" stroke="black" d="M464,-47.6C464,-50.24 415.82,-52.38 356.5,-52.38 297.18,-52.38 249,-50.24 249,-47.6 249,-47.6 249,-4.65 249,-4.65 249,-2.01 297.18,0.13 356.5,0.13 415.82,0.13 464,-2.01 464,-4.65 464,-4.65 464,-47.6 464,-47.6"/>
<path fill="none" stroke="black" d="M464,-47.6C464,-44.97 415.82,-42.83 356.5,-42.83 297.18,-42.83 249,-44.97 249,-47.6"/>
<text text-anchor="middle" x="356.5" y="-29.93" font-family="Times,serif" font-size="14.00">PostgreSQL</text>
<text text-anchor="middle" x="356.5" y="-14.93" font-family="Times,serif" font-size="14.00">(Sharded, pgvector, JSONB)</text>
</g>
<!-- UserSvc&#45;&gt;DB -->
<g id="edge9" class="edge">
<title>UserSvc&#45;&gt;DB</title>
<path fill="none" stroke="black" d="M148.63,-95.29C184.33,-83.59 231.52,-68.11 271.91,-54.87"/>
<polygon fill="black" stroke="black" points="273.08,-58.17 281.49,-51.73 270.89,-51.52 273.08,-58.17"/>
</g>
<!-- S3 -->
<g id="node11" class="node">
<title>S3</title>
<path fill="none" stroke="black" d="M916.5,-47.6C916.5,-50.24 886.47,-52.38 849.5,-52.38 812.53,-52.38 782.5,-50.24 782.5,-47.6 782.5,-47.6 782.5,-4.65 782.5,-4.65 782.5,-2.01 812.53,0.13 849.5,0.13 886.47,0.13 916.5,-2.01 916.5,-4.65 916.5,-4.65 916.5,-47.6 916.5,-47.6"/>
<path fill="none" stroke="black" d="M916.5,-47.6C916.5,-44.97 886.47,-42.83 849.5,-42.83 812.53,-42.83 782.5,-44.97 782.5,-47.6"/>
<text text-anchor="middle" x="849.5" y="-29.93" font-family="Times,serif" font-size="14.00">AWS S3</text>
<text text-anchor="middle" x="849.5" y="-14.93" font-family="Times,serif" font-size="14.00">(Object Storage)</text>
</g>
<!-- NoteSvc&#45;&gt;S3 -->
<g id="edge10" class="edge">
<title>NoteSvc&#45;&gt;S3</title>
<path fill="none" stroke="black" d="M969.64,-95.29C950.12,-84.22 924.65,-69.77 902.19,-57.02"/>
<polygon fill="black" stroke="black" points="903.85,-53.94 893.43,-52.05 900.4,-60.03 903.85,-53.94"/>
</g>
<!-- AISvc&#45;&gt;DB -->
<g id="edge11" class="edge">
<title>AISvc&#45;&gt;DB</title>
<path fill="none" stroke="black" d="M626.81,-95.29C578.59,-83.13 514.25,-66.91 460.43,-53.34"/>
<polygon fill="black" stroke="black" points="461.07,-49.89 450.52,-50.84 459.36,-56.67 461.07,-49.89"/>
</g>
<!-- AISvc&#45;&gt;S3 -->
<g id="edge12" class="edge">
<title>AISvc&#45;&gt;S3</title>
<path fill="none" stroke="black" d="M730.15,-95.29C749.55,-84.22 774.84,-69.77 797.15,-57.02"/>
<polygon fill="black" stroke="black" points="798.91,-60.05 805.86,-52.05 795.44,-53.97 798.91,-60.05"/>
</g>
<!-- GameSvc&#45;&gt;DB -->
<g id="edge13" class="edge">
<title>GameSvc&#45;&gt;DB</title>
<path fill="none" stroke="black" d="M356.5,-95.08C356.5,-85.54 356.5,-73.54 356.5,-62.29"/>
<polygon fill="black" stroke="black" points="360,-62.26 356.5,-52.26 353,-62.26 360,-62.26"/>
</g>
<!-- Cloud -->
<g id="node14" class="node">
<title>Cloud</title>
<polygon fill="none" stroke="black" points="1540.5,-45.12 1288.5,-45.12 1288.5,-7.12 1540.5,-7.12 1540.5,-45.12"/>
<text text-anchor="middle" x="1414.5" y="-29.93" font-family="Times,serif" font-size="14.00">[Infrastructure Layer: AWS/GCP]</text>
<text text-anchor="middle" x="1414.5" y="-14.93" font-family="Times,serif" font-size="14.00">Auto&#45;scaling, VPC, CI/CD</text>
</g>
<!-- Obs&#45;&gt;Cloud -->
<g id="edge16" class="edge">
<title>Obs&#45;&gt;Cloud</title>
<path fill="none" stroke="black" d="M1414.5,-95.08C1414.5,-83.65 1414.5,-68.68 1414.5,-55.7"/>
<polygon fill="black" stroke="black" points="1418,-55.39 1414.5,-45.39 1411,-55.39 1418,-55.39"/>
</g>
</g>
</svg>
