<svg aria-hidden="true" style="position: absolute; width: 0; height: 0; overflow: hidden;" version="1.1" xmlns="http://www.w3.org/2000/svg" xmlns:xlink="http://www.w3.org/1999/xlink">
<defs>
<symbol id="icon-mingcute_ai-line" viewBox="0 0 31 32">
<path d="M11.188 7.059c0.767-2.333 3.867-2.404 4.776-0.212l0.077 0.213 1.035 3.147c0.237 0.722 0.62 1.382 1.124 1.937s1.115 0.99 1.794 1.278l0.278 0.108 3.026 1.075c2.244 0.797 2.311 4.021 0.205 4.967l-0.205 0.080-3.026 1.076c-0.694 0.246-1.329 0.645-1.863 1.168s-0.953 1.16-1.23 1.866l-0.104 0.288-1.033 3.148c-0.767 2.333-3.867 2.404-4.774 0.213l-0.079-0.213-1.033-3.147c-0.237-0.722-0.62-1.383-1.123-1.937s-1.115-0.991-1.795-1.279l-0.277-0.108-3.026-1.075c-2.245-0.797-2.313-4.021-0.205-4.965l0.205-0.083 3.026-1.075c0.694-0.247 1.329-0.645 1.862-1.169s0.952-1.16 1.229-1.866l0.104-0.288 1.033-3.148zM13.615 7.92l-1.033 3.147c-0.361 1.1-0.948 2.106-1.721 2.946s-1.712 1.495-2.753 1.919l-0.321 0.121-3.026 1.075 3.026 1.075c1.058 0.375 2.025 0.986 2.833 1.79s1.438 1.781 1.846 2.863l0.117 0.333 1.033 3.147 1.033-3.147c0.361-1.1 0.948-2.106 1.721-2.946s1.712-1.495 2.753-1.919l0.321-0.12 3.026-1.076-3.026-1.075c-1.058-0.376-2.025-0.986-2.833-1.79s-1.438-1.781-1.846-2.863l-0.115-0.333-1.035-3.147zM23.871 2.462c0.24 0 0.475 0.070 0.678 0.202s0.367 0.321 0.473 0.545l0.062 0.156 0.449 1.368 1.317 0.467c0.24 0.085 0.451 0.242 0.605 0.452s0.245 0.462 0.262 0.726c0.016 0.263-0.043 0.526-0.171 0.754s-0.317 0.412-0.545 0.528l-0.151 0.064-1.315 0.467-0.449 1.369c-0.082 0.25-0.233 0.469-0.435 0.629s-0.444 0.255-0.698 0.272c-0.253 0.017-0.506-0.045-0.725-0.178s-0.396-0.33-0.508-0.567l-0.062-0.156-0.449-1.368-1.317-0.467c-0.24-0.085-0.451-0.242-0.605-0.452s-0.245-0.462-0.262-0.726c-0.016-0.263 0.043-0.526 0.171-0.754s0.317-0.412 0.545-0.528l0.151-0.064 1.315-0.467 0.449-1.369c0.087-0.263 0.25-0.492 0.468-0.654s0.479-0.249 0.746-0.249z"></path>
</symbol>
<symbol id="icon-bx_bell" viewBox="0 0 32 32">
<path d="M25.333 18.115v-4.781c0-4.289-2.913-7.903-6.86-8.989-0.391-0.984-1.345-1.677-2.473-1.677s-2.083 0.693-2.473 1.677c-3.947 1.088-6.86 4.7-6.86 8.989v4.781l-2.276 2.276c-0.25 0.25-0.391 0.589-0.391 0.943v2.667c0 0.354 0.14 0.693 0.391 0.943s0.589 0.391 0.943 0.391h21.333c0.354 0 0.693-0.141 0.943-0.391s0.391-0.589 0.391-0.943v-2.667c-0-0.354-0.141-0.693-0.391-0.943l-2.276-2.276zM25.333 22.667h-18.667v-0.781l2.276-2.276c0.25-0.25 0.391-0.589 0.391-0.943v-5.333c0-3.676 2.991-6.667 6.667-6.667s6.667 2.991 6.667 6.667v5.333c0 0.355 0.14 0.693 0.391 0.943l2.276 2.276v0.781zM16 29.333c0.826 0.001 1.631-0.255 2.305-0.733s1.181-1.154 1.453-1.934h-7.515c0.272 0.78 0.779 1.456 1.453 1.934s1.479 0.734 2.305 0.733z"></path>
</symbol>
<symbol id="icon-profile" viewBox="0 0 32 32">
<path d="M6.16 24.16c1.36-1.040 2.88-1.86 4.56-2.459s3.44-0.9 5.28-0.901 3.6 0.299 5.28 0.901c1.68 0.602 3.2 1.421 4.56 2.459 0.933-1.093 1.66-2.333 2.181-3.72s0.78-2.867 0.779-4.44c0-3.547-1.246-6.567-3.739-9.061s-5.513-3.74-9.061-3.739c-3.548 0.001-6.568 1.248-9.061 3.741s-3.739 5.513-3.739 9.059c0 1.573 0.26 3.053 0.781 4.44s1.247 2.627 2.179 3.72zM16 17.6c-1.573 0-2.9-0.54-3.981-1.619s-1.62-2.406-1.619-3.981c0.001-1.574 0.541-2.901 1.621-3.981s2.406-1.619 3.979-1.619 2.9 0.54 3.981 1.621c1.081 1.081 1.62 2.407 1.619 3.979s-0.541 2.899-1.619 3.981c-1.078 1.082-2.405 1.621-3.981 1.619zM16 32c-2.213 0-4.293-0.42-6.24-1.261s-3.64-1.98-5.080-3.419c-1.44-1.439-2.58-3.132-3.419-5.080s-1.26-4.028-1.261-6.24c-0.001-2.212 0.419-4.292 1.261-6.24s1.981-3.641 3.419-5.080c1.438-1.439 3.131-2.579 5.080-3.419s4.029-1.261 6.24-1.261c2.211 0 4.291 0.42 6.24 1.261s3.642 1.98 5.080 3.419c1.438 1.439 2.578 3.132 3.421 5.080s1.262 4.028 1.259 6.24-0.424 4.292-1.261 6.24c-0.837 1.948-1.977 3.641-3.419 5.080s-3.135 2.579-5.080 3.421c-1.945 0.842-4.025 1.261-6.24 1.259z"></path>
</symbol>
<symbol id="icon-plus2" viewBox="0 0 32 32">
<path stroke-linejoin="round" stroke-linecap="round" stroke-miterlimit="4" stroke-width="1.5802" d="M16 1.136v29.728M30.864 16h-29.728"></path>
</symbol>
<symbol id="icon-home" viewBox="0 0 32 32">
<path d="M32 18.451l-16-12.42-16 12.42v-5.064l16-12.42 16 12.42zM28 18v12h-8v-8h-8v8h-8v-12l12-9z"></path>
</symbol>
<symbol id="icon-plus" viewBox="0 0 32 32">
<path d="M31 12h-11v-11c0-0.552-0.448-1-1-1h-6c-0.552 0-1 0.448-1 1v11h-11c-0.552 0-1 0.448-1 1v6c0 0.552 0.448 1 1 1h11v11c0 0.552 0.448 1 1 1h6c0.552 0 1-0.448 1-1v-11h11c0.552 0 1-0.448 1-1v-6c0-0.552-0.448-1-1-1z"></path>
</symbol>
</defs>
</svg>
